PathFileType	4	(X/Y/Z)	C:\Users\WrightLab\Desktop\Jo\P2_Trial13.trc
DataRate	CameraRate	NumFrames	NumMarkers	Units	OrigDataRate	OrigDataStartFrame	OrigNumFrames
100.00	100.00	       11	19	mm	100.00	426	       567
Frame#	Time	Headset_Front			Headset_Back			Headset_Left			Headset_Right			Left_Shoulder			Right_Shoulder			Sternum			C7			Left Elbow			Right Elbow			Left Wrist			Right Wrist			Left ASIS			Right ASIS			S2			Left Knee			Right Knee			Left Ankle			Right Ankle			
		X1	Y1	Z1	X2	Y2	Z2	X3	Y3	Z3	X4	Y4	Z4	X5	Y5	Z5	X6	Y6	Z6	X7	Y7	Z7	X8	Y8	Z8	X9	Y9	Z9	X10	Y10	Z10	X11	Y11	Z11	X12	Y12	Z12	X13	Y13	Z13	X14	Y14	Z14	X15	Y15	Z15	X16	Y16	Z16	X17	Y17	Z17	X18	Y18	Z18	X19	Y19	Z19	

426	4.250	-28.72093	1432.60986	2038.77710	81.28014	1685.60364	1901.42700	125.72010	1574.66296	2024.47302				258.96732	1471.84167	1949.42957	42.13927	1017.84839	1917.42517	98.86507	1328.57959	1917.18579				448.11868	1152.31287	1966.23743	-47.43904	1097.11255	1661.69434	540.53827	925.71704	1918.39453	-92.37605	848.40698	1688.32874	147.94397	1046.58887	1988.42688				271.17374	960.03699	1757.61914	228.82452	496.04041	2084.49316	108.71455	538.78369	1661.26685	148.64458	229.95522	2266.42944	282.24704	212.27887	1466.35559	
427	4.260	-33.42066	1433.52405	2050.31714	77.58109	1686.08740	1912.69275	121.52758	1574.89941	2037.04175				253.76808	1472.30029	1960.53516	37.91751	1017.77667	1928.89478	94.15735	1330.13818	1930.88416				442.90186	1152.79089	1980.08862	-50.83727	1098.14099	1675.23279	533.44543	925.54114	1931.63232	-93.78157	848.88678	1698.99707	143.36540	1048.13684	1998.80530				267.30780	960.71417	1770.06201	222.62973	500.96271	2096.32080	103.46531	538.15179	1678.91626	141.55914	218.41458	2267.88623	272.99155	224.20081	1475.82324	
428	4.270	-38.50193	1434.01904	2061.49927	73.75806	1686.34570	1923.25684	117.01138	1575.55933	2048.53784				248.95818	1474.04834	1973.09741	34.61671	1018.37708	1940.23193	89.23499	1330.32666	1941.12317				436.32266	1153.59131	1993.42712	-54.25753	1099.32983	1686.05627	526.50543	926.12384	1945.19275	-95.10857	850.31573	1711.25549	139.50229	1050.58313	2009.62561				262.77295	961.01740	1780.85535	213.94089	504.09641	2106.38306	98.39578	538.19574	1696.19775	134.68253	208.68364	2268.75122	262.85812	236.27107	1490.76538	
429	4.280	-43.02380	1435.20776	2073.38232	70.40527	1687.24951	1935.33240	112.39661	1576.16077	2060.06641				243.99142	1474.31055	1983.31921	31.45626	1018.73828	1950.07214	85.23986	1331.57458	1953.64697				430.45938	1154.32983	2007.07349	-57.86763	1100.57385	1699.21729	519.09900	926.15527	1959.94263	-95.96542	851.71960	1722.91370	136.01988	1053.01331	2018.54407				257.91428	961.04706	1791.07678	206.46506	507.97339	2121.19409	93.41805	537.41766	1712.60608	129.18788	197.80937	2267.78784	248.33656	250.48529	1507.46875	
430	4.290	-47.97917	1436.05334	2084.30542	66.00042	1687.53577	1945.32373	108.50640	1576.92419	2071.49951				239.32347	1476.43811	1994.81750	28.09947	1021.06793	1961.22339	80.52641	1332.48462	1963.55103				423.48499	1155.22534	2020.65967	-62.03896	1102.02258	1712.86462	511.10178	925.73456	1974.09668	-96.86898	852.71667	1736.31653	132.31119	1055.35889	2028.48511				253.01599	961.28754	1798.52002	199.20930	509.22946	2134.16113	87.95759	537.44598	1734.12585	123.99984	188.71709	2266.94312	235.12245	263.29996	1525.99890	
431	4.300	-52.05394	1437.54236	2095.94189	61.99190	1688.90112	1957.49036	104.19686	1577.76355	2081.52588				234.63623	1477.82092	2004.47473	24.93049	1022.93823	1970.34387	76.30853	1334.30017	1974.85535				417.07550	1155.95178	2033.37878	-66.01836	1103.67505	1725.28833	502.28558	926.01422	1990.96985	-97.70087	854.04205	1750.08289	129.14166	1057.03467	2037.73413				248.04466	961.04156	1808.74146	191.23462	511.77521	2149.06812	82.56269	536.01495	1752.19543	119.64136	183.01773	2265.99023	220.81059	276.07129	1546.15430	
432	4.310	-56.39056	1438.39160	2106.08960	56.65302	1690.46582	1967.78992	100.13544	1579.30945	2092.79443				230.03999	1479.47485	2014.63818	21.34829	1025.63708	1980.13635	71.60380	1335.98804	1985.08020				410.03275	1156.74915	2047.05933	-70.12470	1105.18665	1737.79431	494.63873	924.63354	2003.96399	-98.07462	855.07074	1764.30420	125.62249	1059.54358	2048.32446				243.63187	960.64569	1820.53845	183.51807	514.26257	2162.98706	77.00523	536.41278	1772.13123	117.73122	177.55946	2262.16333	205.99416	289.09799	1566.93542	
433	4.320	-60.04227	1439.73193	2116.81348	51.73341	1692.48096	1980.53210	95.68185	1580.23682	2102.28906				225.50204	1481.77026	2025.35266	18.03551	1028.25806	1988.12964	65.81184	1338.46545	1995.28625				402.88333	1157.29565	2060.45801	-73.90296	1106.67236	1750.65894	485.44986	924.42181	2021.15942	-98.33062	853.28577	1773.60620	122.32223	1060.64636	2056.86157				239.33600	962.13153	1828.80542	176.80551	516.83771	2173.78467	70.37950	535.18445	1793.69934	115.21224	173.72130	2258.68481	190.36212	304.07187	1588.55920	
434	4.330	-63.87317	1440.18335	2126.38232	46.62702	1694.56323	1990.96277	91.65093	1582.03394	2113.28296				221.07338	1483.47632	2033.61902	13.47329	1031.33533	1997.44482	60.44412	1340.82751	2004.37195				395.84134	1158.38501	2072.74268	-77.20698	1108.88171	1761.21289	476.54517	923.77081	2036.19580	-98.09624	854.66266	1787.18640	118.19138	1063.27197	2066.88989				235.36336	964.47430	1835.01343	171.08176	519.49451	2183.17334	63.32941	535.27856	1815.29236	113.68352	172.67587	2255.34448	174.84572	317.17758	1613.71326	
435	4.340	-67.06632	1441.25293	2135.66357	41.27172	1697.09338	2000.60779	87.23737	1583.04944	2122.16724				216.36581	1485.69788	2045.01343	9.26520	1033.62866	2005.78723	54.98690	1343.63220	2014.22058				388.58646	1159.43445	2085.81787	-79.79505	1110.94934	1772.43604	465.99731	923.45245	2053.15112	-97.11511	856.97333	1799.19104	114.08528	1065.34460	2075.65625				231.77492	967.23364	1847.45349	166.87885	524.56305	2193.55835	55.31027	535.60809	1839.01929	112.23909	173.15121	2251.40161	159.53334	329.82416	1639.47437	
436	4.350	-70.84067	1442.31750	2144.93530	36.17897	1699.36938	2012.47278	83.21819	1584.88586	2132.12573				211.72531	1488.08203	2053.56543	4.08979	1036.78918	2014.85376	49.63691	1346.78442	2023.94092				380.77350	1161.36206	2098.47778	-82.48153	1113.96619	1781.38367	455.37299	924.25342	2070.56836	-96.31019	859.93781	1811.41357	109.15199	1068.33984	2084.33569				228.00888	970.59656	1854.99426	164.61931	528.31024	2200.79956	45.86448	538.29211	1862.30920	111.01015	174.32219	2246.00854	144.50603	342.16528	1665.52954	
